<svg xmlns="http://www.w3.org/2000/svg" xmlns:xlink="http://www.w3.org/1999/xlink" width="30" zoomAndPan="magnify" viewBox="0 0 375 374.999991" height="30" preserveAspectRatio="xMidYMid meet" version="1.0"><defs><clipPath id="8743d7b147"><path d="M 128 69 L 306.84375 69 L 306.84375 248 L 128 248 Z M 128 69 " clip-rule="nonzero"/></clipPath></defs><path fill="#000000" d="M 116.949219 169.875 L 78.316406 208.449219 C 77.726562 209.035156 77.167969 209.652344 76.640625 210.292969 C 76.113281 210.9375 75.621094 211.605469 75.15625 212.296875 C 74.695312 212.988281 74.269531 213.699219 73.875 214.433594 C 73.484375 215.164062 73.128906 215.917969 72.8125 216.683594 C 72.492188 217.453125 72.214844 218.234375 71.972656 219.027344 C 71.730469 219.824219 71.53125 220.628906 71.367188 221.445312 C 71.207031 222.261719 71.082031 223.082031 71 223.90625 C 70.921875 224.734375 70.878906 225.5625 70.878906 226.394531 C 70.878906 227.226562 70.921875 228.054688 71 228.882812 C 71.082031 229.710938 71.207031 230.53125 71.367188 231.347656 C 71.53125 232.160156 71.730469 232.964844 71.972656 233.761719 C 72.214844 234.558594 72.492188 235.339844 72.8125 236.105469 C 73.128906 236.875 73.484375 237.625 73.875 238.359375 C 74.269531 239.089844 74.695312 239.804688 75.15625 240.496094 C 75.621094 241.1875 76.113281 241.851562 76.640625 242.496094 C 77.167969 243.140625 77.726562 243.753906 78.316406 244.34375 L 132.148438 298.089844 C 132.734375 298.675781 133.351562 299.234375 133.996094 299.757812 C 134.640625 300.285156 135.308594 300.777344 136.003906 301.238281 C 136.695312 301.699219 137.410156 302.128906 138.144531 302.519531 C 138.878906 302.910156 139.628906 303.265625 140.398438 303.582031 C 141.167969 303.898438 141.953125 304.179688 142.75 304.417969 C 143.542969 304.660156 144.351562 304.859375 145.167969 305.023438 C 145.984375 305.183594 146.808594 305.304688 147.636719 305.386719 C 148.464844 305.46875 149.292969 305.507812 150.128906 305.507812 C 150.960938 305.507812 151.789062 305.46875 152.617188 305.386719 C 153.445312 305.304688 154.269531 305.183594 155.085938 305.023438 C 155.902344 304.859375 156.710938 304.660156 157.507812 304.417969 C 158.300781 304.179688 159.085938 303.898438 159.855469 303.582031 C 160.625 303.265625 161.375 302.910156 162.109375 302.519531 C 162.84375 302.128906 163.558594 301.699219 164.25 301.238281 C 164.945312 300.777344 165.613281 300.285156 166.257812 299.757812 C 166.902344 299.234375 167.519531 298.675781 168.109375 298.089844 L 206.734375 259.515625 Z M 116.949219 169.875 " fill-opacity="1" fill-rule="nonzero"/><g clip-path="url(#8743d7b147)"><path fill="#000000" d="M 299.730469 130.773438 L 245.898438 77.027344 C 245.308594 76.4375 244.695312 75.882812 244.050781 75.355469 C 243.40625 74.828125 242.738281 74.335938 242.046875 73.875 C 241.351562 73.414062 240.640625 72.984375 239.90625 72.59375 C 239.171875 72.203125 238.417969 71.847656 237.648438 71.53125 C 236.878906 71.214844 236.097656 70.933594 235.300781 70.695312 C 234.503906 70.453125 233.699219 70.25 232.882812 70.089844 C 232.066406 69.925781 231.242188 69.804688 230.414062 69.722656 C 229.585938 69.644531 228.753906 69.601562 227.921875 69.601562 C 227.089844 69.601562 226.261719 69.644531 225.433594 69.722656 C 224.601562 69.804688 223.78125 69.925781 222.964844 70.089844 C 222.148438 70.25 221.339844 70.453125 220.546875 70.695312 C 219.75 70.933594 218.964844 71.214844 218.195312 71.53125 C 217.425781 71.847656 216.675781 72.203125 215.941406 72.59375 C 215.207031 72.984375 214.492188 73.414062 213.800781 73.875 C 213.109375 74.335938 212.441406 74.828125 211.796875 75.355469 C 211.152344 75.882812 210.535156 76.4375 209.945312 77.027344 L 128.933594 157.910156 L 218.71875 247.550781 L 299.730469 166.710938 C 300.320312 166.121094 300.878906 165.503906 301.410156 164.863281 C 301.9375 164.21875 302.433594 163.550781 302.898438 162.859375 C 303.359375 162.167969 303.789062 161.453125 304.179688 160.71875 C 304.574219 159.984375 304.929688 159.234375 305.25 158.464844 C 305.570312 157.695312 305.847656 156.914062 306.089844 156.117188 C 306.332031 155.320312 306.535156 154.515625 306.699219 153.699219 C 306.859375 152.882812 306.984375 152.058594 307.066406 151.230469 C 307.144531 150.402344 307.1875 149.574219 307.1875 148.742188 C 307.1875 147.90625 307.144531 147.078125 307.066406 146.25 C 306.984375 145.421875 306.859375 144.597656 306.699219 143.78125 C 306.535156 142.964844 306.332031 142.160156 306.089844 141.363281 C 305.847656 140.566406 305.570312 139.785156 305.25 139.015625 C 304.929688 138.246094 304.574219 137.496094 304.179688 136.761719 C 303.789062 136.027344 303.359375 135.3125 302.898438 134.621094 C 302.433594 133.929688 301.9375 133.261719 301.410156 132.617188 C 300.878906 131.976562 300.320312 131.359375 299.730469 130.773438 Z M 299.730469 130.773438 " fill-opacity="1" fill-rule="nonzero"/></g></svg>