<svg xmlns="http://www.w3.org/2000/svg" xmlns:xlink="http://www.w3.org/1999/xlink" width="30" zoomAndPan="magnify" viewBox="0 0 375 374.999991" height="30" preserveAspectRatio="xMidYMid meet" version="1.0"><defs><clipPath id="5f1e0b27be"><path d="M 110.128906 73.714844 L 264.628906 73.714844 L 264.628906 259 L 110.128906 259 Z M 110.128906 73.714844 " clip-rule="nonzero"/></clipPath><clipPath id="1a7568072c"><path d="M 151 284 L 222 284 L 222 300.964844 L 151 300.964844 Z M 151 284 " clip-rule="nonzero"/></clipPath></defs><g clip-path="url(#5f1e0b27be)"><path fill="#000000" d="M 244.96875 201.167969 L 248.386719 195.671875 C 252.003906 190.074219 264.019531 169.945312 264.019531 150.644531 C 264.019531 108.253906 229.523438 73.742188 187.132812 73.742188 C 144.738281 73.742188 110.257812 108.253906 110.257812 150.644531 C 110.257812 169.925781 122.285156 190.058594 125.972656 195.800781 C 125.878906 195.671875 131.421875 204.464844 131.421875 204.464844 C 141.101562 219.628906 150.21875 233.96875 152.375 251.472656 C 152.835938 255.214844 156 258.019531 159.757812 258.019531 L 215.679688 258.019531 C 219.421875 258.019531 222.601562 255.214844 223.066406 251.492188 C 225.390625 232.621094 234.902344 217.328125 244.96875 201.167969 Z M 244.96875 201.167969 " fill-opacity="1" fill-rule="nonzero"/></g><path fill="#000000" d="M 216.683594 266.441406 L 157.011719 266.441406 C 154.195312 266.441406 151.914062 268.730469 151.914062 271.546875 C 151.914062 274.367188 154.195312 276.640625 157.011719 276.640625 L 216.683594 276.640625 C 219.492188 276.640625 221.777344 274.367188 221.777344 271.546875 C 221.777344 268.734375 219.492188 266.441406 216.683594 266.441406 Z M 216.683594 266.441406 " fill-opacity="1" fill-rule="nonzero"/><g clip-path="url(#1a7568072c)"><path fill="#000000" d="M 216.683594 284.402344 L 157.011719 284.402344 C 154.195312 284.402344 151.914062 286.699219 151.914062 289.507812 C 151.914062 292.328125 154.195312 294.601562 157.011719 294.601562 L 169.359375 294.601562 C 169.863281 298.085938 172.808594 300.773438 176.433594 300.773438 L 197.828125 300.773438 C 201.457031 300.773438 204.410156 298.085938 204.90625 294.601562 L 216.683594 294.601562 C 219.492188 294.601562 221.777344 292.328125 221.777344 289.507812 C 221.777344 286.699219 219.492188 284.402344 216.683594 284.402344 Z M 216.683594 284.402344 " fill-opacity="1" fill-rule="nonzero"/></g></svg>